<?xml version="1.0" encoding="UTF-8" ?>
<!DOCTYPE svg PUBLIC "-//W3C//DTD SVG 1.1//EN" "http://www.w3.org/Graphics/SVG/1.1/DTD/svg11.dtd">
<svg width="1000px" height="636px" viewBox="0 0 1000 636" version="1.1" xmlns="http://www.w3.org/2000/svg">
  <g>
    <path fill="#bd1723" opacity="1" d=" M 182.02 160.88 C 200.95 157.79 220.35 158.77 239.19 161.98 C 278.97 168.46 316.69 187.28 345.61 215.38 C 348.67 218.32 351.45 221.57 354.72 224.29 C 339.33 240.77 327.36 260.27 319.01 281.18 C 310.00 301.91 305.80 324.49 304.81 346.99 C 304.26 370.20 307.85 393.49 315.47 415.42 C 317.63 422.04 320.71 428.31 323.20 434.81 C 313.91 435.79 304.56 435.38 295.24 435.45 C 290.19 456.24 285.58 477.14 280.98 498.03 C 279.89 503.69 278.19 509.25 277.68 515.01 C 277.97 518.51 281.66 520.61 284.93 520.44 C 291.88 520.37 298.90 520.89 305.81 519.94 C 267.88 541.44 222.90 550.04 179.70 544.23 C 159.69 541.50 140.09 535.78 121.74 527.33 C 77.20 506.78 40.66 469.03 22.53 423.35 C 8.69 389.11 5.36 350.78 12.73 314.62 C 18.27 288.00 29.35 262.45 45.54 240.57 C 77.41 196.66 128.14 167.10 182.02 160.88 M 168.93 218.24 C 168.61 227.49 168.87 236.75 168.79 246.00 C 168.90 251.15 168.44 256.33 169.20 261.44 C 178.19 260.94 187.18 261.52 196.17 261.78 C 196.38 324.85 196.17 387.94 196.28 451.01 C 196.32 458.03 197.44 465.01 197.12 472.04 C 197.26 473.71 196.38 477.10 199.16 476.72 C 222.15 476.80 245.14 476.79 268.12 476.72 C 268.86 470.17 268.29 463.57 268.46 457.00 C 268.46 378.65 268.45 300.31 268.47 221.97 C 268.39 220.72 268.31 219.47 268.23 218.23 C 235.13 218.29 202.03 218.26 168.93 218.24 Z" />
    <path fill="#bd1723" opacity="1" d=" M 306.80 518.89 C 318.71 501.41 330.01 483.51 341.01 465.45 C 346.22 470.07 349.24 476.56 354.31 481.29 C 341.31 495.19 326.55 507.48 310.23 517.29 C 309.14 517.92 307.97 518.42 306.80 518.89 Z" />
  </g>
  <g>
    <path fill="#ffc501" opacity="1" d=" M 436.67 170.73 C 455.09 164.12 474.51 160.70 493.95 159.15 C 503.96 159.12 514.09 158.44 523.99 160.29 C 566.16 164.26 606.83 182.36 638.19 210.81 C 642.09 214.07 645.46 217.87 649.24 221.26 L 648.86 221.64 C 641.76 228.69 635.83 236.76 629.73 244.65 C 626.58 248.82 624.14 253.45 621.79 258.09 C 618.94 249.32 614.43 240.74 607.13 234.87 C 599.85 229.00 591.02 225.21 581.97 223.07 C 566.42 220.98 550.68 222.57 535.07 221.36 C 483.64 221.08 432.21 221.35 380.78 221.22 C 379.88 230.92 381.95 240.57 381.25 250.28 C 377.10 246.45 374.46 241.39 370.98 237.00 C 367.03 231.71 362.46 226.95 358.30 221.84 C 379.78 198.80 407.05 181.32 436.67 170.73 Z" />
    <path fill="#ffc501" opacity="1" d=" M 388.92 264.77 C 396.62 264.75 404.33 264.55 412.03 264.81 C 425.31 266.09 438.68 265.35 452.00 265.54 C 463.34 265.73 474.71 265.03 486.01 266.19 C 497.33 266.80 508.72 265.59 520.00 267.01 C 525.50 267.38 531.06 267.18 536.48 268.32 C 540.17 269.04 544.22 270.26 546.39 273.59 C 554.05 283.80 554.49 297.49 552.37 309.59 C 551.31 314.77 549.19 320.84 543.82 322.90 C 536.22 325.72 527.99 325.56 520.01 325.78 C 505.38 327.34 490.62 325.44 476.00 327.08 C 462.03 327.73 448.00 326.55 434.05 327.90 C 425.66 328.06 417.25 328.24 408.93 329.41 C 405.92 306.91 399.01 285.07 388.92 264.77 Z" />
    <path fill="#ffc501" opacity="1" d=" M 560.05 370.70 C 572.35 370.09 584.89 370.40 596.85 367.01 C 598.39 387.74 602.95 408.52 611.87 427.37 C 612.83 443.73 612.22 460.16 612.53 476.56 C 622.14 476.52 631.93 477.20 641.37 475.03 C 643.41 478.35 645.94 481.31 648.61 484.13 C 623.70 511.30 590.31 530.22 554.78 539.59 C 518.30 549.06 479.14 548.16 443.20 536.76 C 414.61 527.81 388.06 512.32 366.34 491.68 C 363.51 489.14 361.09 486.18 358.05 483.88 C 360.59 480.74 363.26 477.71 366.13 474.87 C 366.20 476.75 366.32 478.63 366.46 480.51 C 417.86 480.85 469.26 480.50 520.66 480.56 C 521.75 466.14 520.29 451.62 521.84 437.20 C 494.81 436.86 467.78 437.06 440.75 437.10 C 439.01 430.57 439.58 423.70 439.23 417.00 C 439.01 404.84 439.02 391.54 446.12 381.07 C 452.01 373.68 462.37 373.71 470.98 372.99 C 477.61 371.99 484.32 372.56 491.00 372.19 C 503.80 370.76 516.70 372.15 529.54 371.31 C 539.67 370.19 549.88 371.01 560.05 370.70 M 563.41 409.66 C 556.08 411.39 549.29 416.00 545.82 422.81 C 540.84 431.68 541.16 442.19 541.72 452.02 C 542.90 460.92 547.08 470.26 555.26 474.75 C 563.02 479.22 572.41 479.52 581.04 478.03 C 587.58 477.44 593.01 472.77 596.42 467.42 C 602.48 457.22 603.55 444.70 601.52 433.20 C 599.48 424.76 595.29 415.97 587.33 411.68 C 580.02 407.90 571.29 407.88 563.41 409.66 Z" />
    <path fill="#ffc501" opacity="1" d=" M 569.41 420.58 C 574.86 419.62 580.77 421.32 584.60 425.40 C 589.53 430.20 591.22 437.33 591.16 444.02 C 590.96 450.80 588.73 457.89 583.49 462.48 C 578.53 467.23 570.47 469.16 564.28 465.70 C 558.60 462.42 555.39 456.13 554.25 449.85 C 552.68 443.14 553.60 435.88 556.77 429.78 C 559.30 424.97 564.04 421.47 569.41 420.58 Z" />
    <path fill="#ffc501" opacity="1" d=" M 625.56 465.52 C 625.51 461.63 625.41 457.74 625.73 453.87 C 627.85 458.14 630.62 462.06 633.87 465.54 C 631.10 465.67 628.32 465.69 625.56 465.52 Z" />
  </g>
  <g>
    <path fill="#3367b2" opacity="1" d=" M 753.58 163.48 C 773.76 159.53 794.58 157.43 815.04 160.41 C 848.33 163.80 880.71 175.70 908.21 194.78 C 933.95 212.46 955.41 236.39 969.96 264.04 C 985.66 293.67 993.35 327.52 991.80 361.03 C 990.59 390.37 982.24 419.34 968.00 445.01 C 955.52 467.47 938.45 487.35 918.26 503.24 C 891.99 523.97 860.37 537.80 827.37 543.27 C 784.76 550.38 739.94 543.41 701.61 523.45 C 683.69 514.25 667.39 502.06 653.03 487.98 C 651.79 486.74 650.68 485.40 649.62 484.04 C 655.86 476.76 662.18 469.53 667.53 461.55 C 669.32 458.87 671.20 456.24 673.26 453.76 C 673.39 461.40 673.33 469.04 673.32 476.68 C 686.42 476.69 699.52 476.67 712.62 476.66 C 712.62 473.74 712.65 470.83 712.68 467.93 C 704.15 467.42 695.61 467.85 687.08 467.71 C 686.66 461.24 686.67 454.75 686.90 448.27 C 694.91 448.16 702.93 448.48 710.95 448.09 C 711.12 445.15 711.14 442.21 710.99 439.28 C 702.96 439.18 694.92 439.45 686.89 439.03 C 686.61 432.96 686.05 426.55 688.90 420.94 C 696.18 420.62 703.47 420.81 710.76 420.73 C 710.78 417.40 710.79 414.08 710.82 410.76 C 704.80 410.36 698.77 410.64 692.75 410.45 C 697.32 397.53 699.59 383.94 701.23 370.38 C 702.00 363.95 701.56 357.46 701.65 351.00 C 702.31 331.97 698.47 313.05 692.94 294.93 C 689.82 284.52 684.98 274.79 680.68 264.86 C 682.19 264.73 683.70 264.63 685.23 264.56 C 704.48 265.01 723.75 264.30 743.00 265.16 C 765.68 265.48 788.36 265.37 811.04 265.54 C 819.93 266.60 829.71 265.28 837.56 270.46 C 844.78 275.33 847.71 284.57 847.71 292.94 C 847.97 301.69 847.47 311.03 842.65 318.64 C 840.48 322.14 836.52 323.92 832.63 324.72 C 823.54 326.53 814.23 326.32 805.02 326.56 C 791.07 327.95 777.03 326.76 763.05 327.63 C 753.41 328.28 743.75 328.04 734.10 328.18 C 733.78 342.84 733.92 357.52 734.02 372.19 C 747.34 372.60 760.68 372.01 773.99 372.82 C 786.11 373.71 798.28 372.82 810.41 373.49 C 818.34 373.91 826.49 373.50 834.18 375.84 C 838.26 376.98 841.04 380.45 843.01 384.01 C 848.50 392.96 847.66 404.00 847.03 414.05 C 846.73 422.14 841.66 430.32 833.68 432.72 C 822.11 436.20 809.88 435.09 797.99 436.16 C 792.94 436.48 787.39 435.87 783.01 438.88 C 787.72 449.98 794.69 459.92 800.70 470.33 C 802.93 473.81 804.70 477.62 807.36 480.82 C 810.11 481.76 813.13 481.26 816.00 481.37 C 832.35 481.05 848.73 482.00 865.03 480.56 C 879.76 479.71 895.32 475.75 906.07 465.06 C 915.83 454.80 918.09 440.09 919.37 426.56 C 919.82 416.72 919.60 406.85 919.60 397.00 C 919.72 388.49 918.84 379.85 916.05 371.76 C 913.42 364.22 908.26 358.00 904.18 351.24 C 908.04 346.70 912.31 342.34 914.71 336.80 C 919.07 326.80 919.71 315.74 920.32 305.00 C 920.58 285.57 920.72 265.06 911.79 247.27 C 905.14 233.69 891.19 224.97 876.60 222.29 C 870.18 220.78 863.56 221.53 857.06 220.88 C 849.72 220.24 842.35 220.46 835.00 220.40 C 803.67 220.38 772.34 220.36 741.00 220.45 C 717.08 220.45 693.17 221.34 669.24 221.25 C 669.23 226.76 669.31 232.28 668.85 237.77 C 668.61 239.88 668.26 241.97 667.92 244.07 C 661.80 236.42 656.51 227.91 648.86 221.64 L 649.24 221.26 C 677.18 192.09 713.98 171.55 753.58 163.48 M 723.18 410.20 C 723.27 432.37 723.33 454.53 723.30 476.70 C 727.80 476.69 732.31 476.67 736.82 476.72 C 737.02 467.22 736.56 457.71 736.95 448.21 C 739.48 448.22 742.03 448.25 744.58 448.37 C 750.41 458.25 755.96 468.34 762.22 477.94 C 767.11 478.73 772.14 478.25 777.09 478.15 C 770.96 467.58 763.99 457.52 757.83 446.97 C 765.91 442.32 770.14 432.17 767.91 423.15 C 765.72 415.06 757.11 410.05 749.04 410.23 C 740.42 410.26 731.80 410.11 723.18 410.20 Z" />
    <path fill="#3367b2" opacity="1" d=" M 736.82 421.27 C 740.46 421.19 744.23 420.20 747.82 421.16 C 751.44 423.01 754.20 426.87 754.34 431.00 C 753.95 435.02 751.22 438.71 747.69 440.60 C 744.13 440.99 740.54 440.65 736.97 440.69 C 736.53 434.23 736.56 427.73 736.82 421.27 Z" />
  </g>
  <g style="fill:#ffffff; fill-opacity:1;">
    <path d=" M 168.93 218.24 C 202.03 218.26 235.13 218.29 268.23 218.23 C 268.31 219.47 268.39 220.72 268.47 221.97 C 268.45 300.31 268.46 378.65 268.46 457.00 C 268.29 463.57 268.86 470.17 268.12 476.72 C 245.14 476.79 222.15 476.80 199.16 476.72 C 196.38 477.10 197.26 473.71 197.12 472.04 C 197.44 465.01 196.32 458.03 196.28 451.01 C 196.17 387.94 196.38 324.85 196.17 261.78 C 187.18 261.52 178.19 260.94 169.20 261.44 C 168.44 256.33 168.90 251.15 168.79 246.00 C 168.87 236.75 168.61 227.49 168.93 218.24 Z" />
    <path d=" M 669.24 221.25 C 693.17 221.34 717.08 220.45 741.00 220.45 C 772.34 220.36 803.67 220.38 835.00 220.40 C 842.35 220.46 849.72 220.24 857.06 220.88 C 863.56 221.53 870.18 220.78 876.60 222.29 C 891.19 224.97 905.14 233.69 911.79 247.27 C 920.72 265.06 920.58 285.57 920.32 305.00 C 919.71 315.74 919.07 326.80 914.71 336.80 C 912.31 342.34 908.04 346.70 904.18 351.24 C 908.26 358.00 913.42 364.22 916.05 371.76 C 918.84 379.85 919.72 388.49 919.60 397.00 C 919.60 406.85 919.82 416.72 919.37 426.56 C 918.09 440.09 915.83 454.80 906.07 465.06 C 895.32 475.75 879.76 479.71 865.03 480.56 C 848.73 482.00 832.35 481.05 816.00 481.37 C 813.13 481.26 810.11 481.76 807.36 480.82 C 804.70 477.62 802.93 473.81 800.70 470.33 C 794.69 459.92 787.72 449.98 783.01 438.88 C 787.39 435.87 792.94 436.48 797.99 436.16 C 809.88 435.09 822.11 436.20 833.68 432.72 C 841.66 430.32 846.73 422.14 847.03 414.05 C 847.66 404.00 848.50 392.96 843.01 384.01 C 841.04 380.45 838.26 376.98 834.18 375.84 C 826.49 373.50 818.34 373.91 810.41 373.49 C 798.28 372.82 786.11 373.71 773.99 372.82 C 760.68 372.01 747.34 372.60 734.02 372.19 C 733.92 357.52 733.78 342.84 734.10 328.18 C 743.75 328.04 753.41 328.28 763.05 327.63 C 777.03 326.76 791.07 327.95 805.02 326.56 C 814.23 326.32 823.54 326.53 832.63 324.72 C 836.52 323.92 840.48 322.14 842.65 318.64 C 847.47 311.03 847.97 301.69 847.71 292.94 C 847.71 284.57 844.78 275.33 837.56 270.46 C 829.71 265.28 819.93 266.60 811.04 265.54 C 788.36 265.37 765.68 265.48 743.00 265.16 C 723.75 264.30 704.48 265.01 685.23 264.56 C 681.16 264.28 677.07 264.42 673.01 264.03 C 671.56 263.90 669.64 263.40 669.47 261.67 C 668.13 253.78 668.76 245.73 668.85 237.77 C 669.31 232.28 669.23 226.76 669.24 221.25 Z" />
    <path d=" M 380.78 221.22 C 432.21 221.35 483.64 221.08 535.07 221.36 C 550.68 222.57 566.42 220.98 581.97 223.07 C 591.02 225.21 599.85 229.00 607.13 234.87 C 614.43 240.74 618.94 249.32 621.79 258.09 C 626.16 272.67 626.36 287.95 627.09 303.01 C 626.35 318.62 625.87 335.04 618.08 349.04 C 613.72 357.59 605.22 362.95 596.85 367.01 C 584.89 370.40 572.35 370.09 560.05 370.70 C 549.88 371.01 539.67 370.19 529.54 371.31 C 516.70 372.15 503.80 370.76 491.00 372.19 C 484.32 372.56 477.61 371.99 470.98 372.99 C 462.37 373.71 452.01 373.68 446.12 381.07 C 439.02 391.54 439.01 404.84 439.23 417.00 C 439.58 423.70 439.01 430.57 440.75 437.10 C 467.78 437.06 494.81 436.86 521.84 437.20 C 520.29 451.62 521.75 466.14 520.66 480.56 C 469.26 480.50 417.86 480.85 366.46 480.51 C 366.32 478.63 366.20 476.75 366.13 474.87 C 365.81 467.92 365.10 460.97 365.38 454.00 C 365.54 441.34 364.89 428.65 366.15 416.02 C 366.14 396.51 366.27 376.26 373.90 357.95 C 379.71 343.32 393.50 332.25 408.93 329.41 C 417.25 328.24 425.66 328.06 434.05 327.90 C 448.00 326.55 462.03 327.73 476.00 327.08 C 490.62 325.44 505.38 327.34 520.01 325.78 C 527.99 325.56 536.22 325.72 543.82 322.90 C 549.19 320.84 551.31 314.77 552.37 309.59 C 554.49 297.49 554.05 283.80 546.39 273.59 C 544.22 270.26 540.17 269.04 536.48 268.32 C 531.06 267.18 525.50 267.38 520.00 267.01 C 508.72 265.59 497.33 266.80 486.01 266.19 C 474.71 265.03 463.34 265.73 452.00 265.54 C 438.68 265.35 425.31 266.09 412.03 264.81 C 404.33 264.55 396.62 264.75 388.92 264.77 C 386.37 264.77 383.83 264.72 381.30 264.68 C 381.34 259.88 381.29 255.08 381.25 250.28 C 381.95 240.57 379.88 230.92 380.78 221.22 Z" />
    <path d="M 563.41 409.66 C 571.29 407.88 580.02 407.90 587.33 411.68 C 595.29 415.97 599.48 424.76 601.52 433.20 C 603.55 444.70 602.48 457.22 596.42 467.42 C 593.01 472.77 587.58 477.44 581.04 478.03 C 572.41 479.52 563.02 479.22 555.26 474.75 C 547.08 470.26 542.90 460.92 541.72 452.02 C 541.16 442.19 540.84 431.68 545.82 422.81 C 549.29 416.00 556.08 411.39 563.41 409.66 M 569.41 420.58 C 564.04 421.47 559.30 424.97 556.77 429.78 C 553.60 435.88 552.68 443.14 554.25 449.85 C 555.39 456.13 558.60 462.42 564.28 465.70 C 570.47 469.16 578.53 467.23 583.49 462.48 C 588.73 457.89 590.96 450.80 591.16 444.02 C 591.22 437.33 589.53 430.20 584.60 425.40 C 580.77 421.32 574.86 419.62 569.41 420.58 Z" />
    <path d="M 612.20 409.29 C 623.14 409.73 634.89 407.54 644.92 413.18 C 659.54 420.08 666.15 438.47 661.52 453.57 C 659.00 463.63 650.88 471.40 641.37 475.03 C 631.93 477.20 622.14 476.52 612.53 476.56 C 612.22 460.16 612.83 443.73 611.87 427.37 C 612.37 421.35 612.09 415.31 612.20 409.29 M 625.92 420.14 C 625.39 431.37 625.67 442.64 625.73 453.87 C 625.41 457.74 625.51 461.63 625.56 465.52 C 628.32 465.69 631.10 465.67 633.87 465.54 C 638.00 464.25 642.17 462.37 644.83 458.80 C 652.31 448.90 650.57 433.74 641.78 425.22 C 637.60 421.08 631.64 419.65 625.92 420.14 Z" />
    <path d="M 673.32 410.33 C 679.80 410.40 686.27 410.34 692.75 410.45 C 698.77 410.64 704.80 410.36 710.82 410.76 C 710.79 414.08 710.78 417.40 710.76 420.73 C 703.47 420.81 696.18 420.62 688.90 420.94 C 686.05 426.55 686.61 432.96 686.89 439.03 C 694.92 439.45 702.96 439.18 710.99 439.28 C 711.14 442.21 711.12 445.15 710.95 448.09 C 702.93 448.48 694.91 448.16 686.90 448.27 C 686.67 454.75 686.66 461.24 687.08 467.71 C 695.61 467.85 704.15 467.42 712.68 467.93 C 712.65 470.83 712.62 473.74 712.62 476.66 C 699.52 476.67 686.42 476.69 673.32 476.68 C 673.33 469.04 673.39 461.40 673.26 453.76 C 673.43 439.29 673.28 424.81 673.32 410.33 Z" />
    <path d="M 723.18 410.20 C 731.80 410.11 740.42 410.26 749.04 410.23 C 757.11 410.05 765.72 415.06 767.91 423.15 C 770.14 432.17 765.91 442.32 757.83 446.97 C 763.99 457.52 770.96 467.58 777.09 478.15 C 772.14 478.25 767.11 478.73 762.22 477.94 C 755.96 468.34 750.41 458.25 744.58 448.37 C 742.03 448.25 739.48 448.22 736.95 448.21 C 736.56 457.71 737.02 467.22 736.82 476.72 C 732.31 476.67 727.80 476.69 723.30 476.70 C 723.33 454.53 723.27 432.37 723.18 410.20 M 736.82 421.27 C 736.56 427.73 736.53 434.23 736.97 440.69 C 740.54 440.65 744.13 440.99 747.69 440.60 C 751.22 438.71 753.95 435.02 754.34 431.00 C 754.20 426.87 751.44 423.01 747.82 421.16 C 744.23 420.20 740.46 421.19 736.82 421.27 Z" />
    <path d="M 295.24 435.45 C 304.56 435.38 313.91 435.79 323.20 434.81 C 334.41 434.77 345.68 434.16 356.82 435.69 C 356.81 437.67 356.43 439.64 355.32 441.33 C 350.61 449.41 345.88 457.47 341.01 465.45 C 330.01 483.51 318.71 501.41 306.80 518.89 C 306.55 519.15 306.06 519.68 305.81 519.94 C 298.90 520.89 291.88 520.37 284.93 520.44 C 281.66 520.61 277.97 518.51 277.68 515.01 C 278.19 509.25 279.89 503.69 280.98 498.03 C 285.58 477.14 290.19 456.24 295.24 435.45 Z" />
  </g>
  <g>
    <path fill="#ffbd4c" opacity="1" d=" M 354.72 224.29 C 355.69 223.22 356.72 222.19 357.73 221.14 L 358.30 221.84 C 362.46 226.95 367.03 231.71 370.98 237.00 C 374.46 241.39 377.10 246.45 381.25 250.28 C 381.29 255.08 381.34 259.88 381.30 264.68 C 383.83 264.72 386.37 264.77 388.92 264.77 C 399.01 285.07 405.92 306.91 408.93 329.41 C 393.50 332.25 379.71 343.32 373.90 357.95 C 366.27 376.26 366.14 396.51 366.15 416.02 C 364.89 428.65 365.54 441.34 365.38 454.00 C 365.10 460.97 365.81 467.92 366.13 474.87 C 363.26 477.71 360.59 480.74 358.05 483.88 C 356.61 483.33 355.41 482.34 354.31 481.29 C 349.24 476.56 346.22 470.07 341.01 465.45 C 345.88 457.47 350.61 449.41 355.32 441.33 C 356.43 439.64 356.81 437.67 356.82 435.69 C 345.68 434.16 334.41 434.77 323.20 434.81 C 320.71 428.31 317.63 422.04 315.47 415.42 C 307.85 393.49 304.26 370.20 304.81 346.99 C 305.80 324.49 310.00 301.91 319.01 281.18 C 327.36 260.27 339.33 240.77 354.72 224.29 Z" />
  </g>
  <g>
    <path fill="#93b1d7" opacity="1" d=" M 629.73 244.65 C 635.83 236.76 641.76 228.69 648.86 221.64 C 656.51 227.91 661.80 236.42 667.92 244.07 C 668.26 241.97 668.61 239.88 668.85 237.77 C 668.76 245.73 668.13 253.78 669.47 261.67 C 669.64 263.40 671.56 263.90 673.01 264.03 C 677.07 264.42 681.16 264.28 685.23 264.56 C 683.70 264.63 682.19 264.73 680.68 264.86 C 684.98 274.79 689.82 284.52 692.94 294.93 C 698.47 313.05 702.31 331.97 701.65 351.00 C 701.56 357.46 702.00 363.95 701.23 370.38 C 699.59 383.94 697.32 397.53 692.75 410.45 C 686.27 410.34 679.80 410.40 673.32 410.33 C 673.28 424.81 673.43 439.29 673.26 453.76 C 671.20 456.24 669.32 458.87 667.53 461.55 C 662.18 469.53 655.86 476.76 649.62 484.04 L 649.09 484.66 L 648.61 484.13 C 645.94 481.31 643.41 478.35 641.37 475.03 C 650.88 471.40 659.00 463.63 661.52 453.57 C 666.15 438.47 659.54 420.08 644.92 413.18 C 634.89 407.54 623.14 409.73 612.20 409.29 C 612.09 415.31 612.37 421.35 611.87 427.37 C 602.95 408.52 598.39 387.74 596.85 367.01 C 605.22 362.95 613.72 357.59 618.08 349.04 C 625.87 335.04 626.35 318.62 627.09 303.01 C 626.36 287.95 626.16 272.67 621.79 258.09 C 624.14 253.45 626.58 248.82 629.73 244.65 Z" />
    <path fill="#93b1d7" opacity="1.00" d=" M 625.92 420.14 C 631.64 419.65 637.60 421.08 641.78 425.22 C 650.57 433.74 652.31 448.90 644.83 458.80 C 642.17 462.37 638.00 464.25 633.87 465.54 C 630.62 462.06 627.85 458.14 625.73 453.87 C 625.67 442.64 625.39 431.37 625.92 420.14 Z" />
  </g>
</svg>
